<?xml version="1.0" encoding="UTF-8" standalone="no"?>
<!-- Created with Inkscape (http://www.inkscape.org/) -->

<svg
   version="1.1"
   id="svg2"
   width="593.31708"
   height="439.28412"
   viewBox="0 0 593.31708 439.28412"
   xmlns="http://www.w3.org/2000/svg"
   xmlns:svg="http://www.w3.org/2000/svg">
  <defs
     id="defs6">
    <clipPath
       clipPathUnits="userSpaceOnUse"
       id="clipPath20">
      <path
         d="M 0,500 H 500 V 0 H 0 Z"
         id="path18" />
    </clipPath>
    <clipPath
       clipPathUnits="userSpaceOnUse"
       id="clipPath164">
      <path
         d="m 356.579,328.41 h 87.763 v -65.108 h -87.763 z"
         id="path162" />
    </clipPath>
    <clipPath
       clipPathUnits="userSpaceOnUse"
       id="clipPath180">
      <path
         d="m 359.386,325.284 h 88.303 v -65.648 h -88.303 z"
         id="path178" />
    </clipPath>
    <clipPath
       clipPathUnits="userSpaceOnUse"
       id="clipPath232">
      <path
         d="m 308.842,280.439 h 69.453 V 218.39 h -69.453 z"
         id="path230" />
    </clipPath>
    <clipPath
       clipPathUnits="userSpaceOnUse"
       id="clipPath248">
      <path
         d="M 304.608,285.128 H 374.6 v -62.589 h -69.992 z"
         id="path246" />
    </clipPath>
    <clipPath
       clipPathUnits="userSpaceOnUse"
       id="clipPath272">
      <path
         d="m 307.915,311.717 h 66.994 v -71.198 h -66.994 z"
         id="path270" />
    </clipPath>
    <clipPath
       clipPathUnits="userSpaceOnUse"
       id="clipPath288">
      <path
         d="M 334.722,296.881 H 392.59 V 190.753 h -57.868 z"
         id="path286" />
    </clipPath>
    <clipPath
       clipPathUnits="userSpaceOnUse"
       id="clipPath304">
      <path
         d="M 333.816,296.543 H 444.341 V 217.986 H 333.816 Z"
         id="path302" />
    </clipPath>
    <clipPath
       clipPathUnits="userSpaceOnUse"
       id="clipPath428">
      <path
         d="M 32.1124,289.072 H 119.876 V 223.964 H 32.1124 Z"
         id="path426" />
    </clipPath>
    <clipPath
       clipPathUnits="userSpaceOnUse"
       id="clipPath444">
      <path
         d="M 27.3709,286.333 H 115.674 V 220.684 H 27.3709 Z"
         id="path442" />
    </clipPath>
    <clipPath
       clipPathUnits="userSpaceOnUse"
       id="clipPath476">
      <path
         d="m 108.053,234.553 h 52.52 v -38.962 h -52.52 z"
         id="path474" />
    </clipPath>
    <clipPath
       clipPathUnits="userSpaceOnUse"
       id="clipPath492">
      <path
         d="m 104.303,231.49 h 53.059 v -39.502 h -53.059 z"
         id="path490" />
    </clipPath>
    <clipPath
       clipPathUnits="userSpaceOnUse"
       id="clipPath548">
      <path
         d="M 32.2725,291.465 H 120.091 V 226.057 H 32.2725 Z"
         id="path546" />
    </clipPath>
    <clipPath
       clipPathUnits="userSpaceOnUse"
       id="clipPath564">
      <path
         d="m 109.189,292.046 h 45.834 v -67.878 h -45.834 z"
         id="path562" />
    </clipPath>
    <clipPath
       clipPathUnits="userSpaceOnUse"
       id="clipPath580">
      <path
         d="M 78.5561,292.534 H 132.123 V 160.238 H 78.5561 Z"
         id="path578" />
    </clipPath>
    <clipPath
       clipPathUnits="userSpaceOnUse"
       id="clipPath596">
      <path
         d="M 57.4212,319.902 H 113.617 V 290.803 H 57.4212 Z"
         id="path594" />
    </clipPath>
  </defs>
  <g
     id="g10"
     transform="matrix(1.3333333,0,0,-1.3333333,-36.495956,544.57938)">
    <path
       d="M 0,0 H 500 V 500 H 0 Z"
       style="display:none;fill:#ffffff;fill-opacity:1;fill-rule:nonzero;stroke:none"
       id="path12" />
    <g
       id="g14">
      <g
         id="g16"
         clip-path="url(#clipPath20)">
        <g
           id="g22"
           transform="translate(97.2144,378.1504)">
          <path
             d="m 0,0 c 91.325,75.411 133.281,-11.638 194.424,-29.022 61.143,-17.385 114.218,6.451 137.294,-78.207 23.076,-84.659 -90.043,-183.376 -212.32,-163.812 C -2.879,-251.477 -84.227,-69.55 0,0"
             style="fill:#ebf3ff;fill-opacity:1;fill-rule:nonzero;stroke:none"
             id="path24" />
        </g>
        <g
           id="g26"
           transform="translate(289.5674,386.7607)">
          <path
             d="m 0,0 c -6.399,10.673 -29.668,10 -32.648,-3.461 -2.981,-13.461 -18.557,-14.999 -16.923,-23.846 1.635,-8.845 -12.018,-1.922 -13.461,-15.287 -1.442,-13.365 27.397,-38.672 57.447,-22.99 30.05,15.682 7.358,28.756 9.858,36.786 2.5,8.03 5.798,13.607 2.274,16.972 C 3.023,-8.461 7.648,-1.442 0,0"
             style="fill:#4a0945;fill-opacity:1;fill-rule:nonzero;stroke:none"
             id="path28" />
        </g>
        <g
           id="g30"
           transform="translate(293.4795,117.1553)">
          <path
             d="M 0,0 -0.032,-0.075 C -0.027,-0.026 -0.021,0 -0.021,0 Z"
             style="fill:#2b022b;fill-opacity:1;fill-rule:nonzero;stroke:none"
             id="path32" />
        </g>
        <g
           id="g34"
           transform="translate(323.7783,107.0996)">
          <path
             d="m 0,0 -7.148,-8.503 -25.196,4.052 c 0.718,5.994 1.883,13.596 2.013,14.431 l 0.032,0.076 h 19.11 C -11.189,10.056 -6.15,5.621 0,0"
             style="fill:#ff94a9;fill-opacity:1;fill-rule:nonzero;stroke:none"
             id="path36" />
        </g>
        <g
           id="g38"
           transform="translate(345.7627,84.1758)">
          <path
             d="m 0,0 c -1.057,-2.881 -27.596,3.749 -35.575,5.384 -7.98,1.635 -19.234,2.692 -19.325,6.442 -0.033,1.181 0.215,3.723 0.572,6.647 l 25.195,-4.052 7.149,8.503 C -12.101,13.892 0.653,1.78 0,0"
             style="fill:#2b022b;fill-opacity:1;fill-rule:nonzero;stroke:none"
             id="path40" />
        </g>
        <g
           id="g42"
           transform="translate(280.4102,137.4756)">
          <path
             d="M 0,0 -11.056,-1.077 -26.23,19.44 c 4.705,3.783 10.854,8.401 11.532,8.908 l 0.076,0.031 13.658,-13.365 c 0,0 0.5,-6.694 0.964,-15.014"
             style="fill:#ff94a9;fill-opacity:1;fill-rule:nonzero;stroke:none"
             id="path44" />
        </g>
        <g
           id="g46"
           transform="translate(280.0908,105.7158)">
          <path
             d="m 0,0 c -2.771,-1.32 -17.102,21.98 -21.661,28.729 -4.56,6.75 -11.864,15.376 -9.307,18.121 0.803,0.867 2.758,2.509 5.057,4.35 L -10.736,30.683 0.319,31.76 C 1.067,18.393 1.712,0.815 0,0"
             style="fill:#2b022b;fill-opacity:1;fill-rule:nonzero;stroke:none"
             id="path48" />
        </g>
        <g
           id="g50"
           transform="translate(291.5918,287.2729)">
          <path
             d="m 0,0 c 0,0 36.409,-54.662 39.229,-64.405 2.821,-9.743 -49.998,-75.382 -49.998,-75.382 0,0 -20.512,13.333 -19.486,16.41 1.026,3.077 37.119,57.583 37.119,57.583 0,0 -36.658,47.797 -33.94,55.746 2.718,7.948 14.146,16.174 14.146,16.174"
             style="fill:#2b022b;fill-opacity:1;fill-rule:nonzero;stroke:none"
             id="path52" />
        </g>
        <g
           id="g54"
           transform="translate(239.9966,282.106)">
          <path
             d="m 0,0 c -5.384,-38.32 19.319,-64.986 38.376,-89.344 3.674,-38.46 12.904,-82.818 13.673,-82.048 0.77,0.769 23.076,3.077 22.307,5.641 -0.769,2.564 -4.615,82.817 -6.923,89.227 -2.308,6.41 -34.87,80.118 -34.87,80.118 L 7.308,-2.99"
             style="fill:#4a0945;fill-opacity:1;fill-rule:nonzero;stroke:none"
             id="path56" />
        </g>
        <g
           id="g58"
           transform="translate(335.2178,279.2393)">
          <path
             d="M 0,0 C 0.737,8.924 1.313,13.968 -2.084,9.417 -5.48,4.865 -6.314,0.827 -6.314,0.827"
             style="fill:#ff94a9;fill-opacity:1;fill-rule:nonzero;stroke:none"
             id="path60" />
        </g>
        <g
           id="g62"
           transform="translate(255.8486,276.4243)">
          <path
             d="m 0,0 1.154,16.11 0.459,6.404 0.529,7.456 0.459,6.398 0.534,7.456 0.458,6.399 0.507,7.089 1.878,15.856 16.525,-1.02 9.339,-13.013 c 0,0 0.421,-2.357 1.062,-6.112 0.308,-1.802 0.664,-3.922 1.052,-6.258 0.378,-2.261 0.783,-4.721 1.192,-7.289 0.33,-2.034 0.659,-4.138 0.988,-6.259 0.378,-2.433 0.745,-4.893 1.095,-7.299 0.313,-2.153 0.605,-4.262 0.869,-6.274 0.497,-3.712 0.89,-7.101 1.128,-9.836 C 40.506,-5.131 23.074,0.388 0,0"
             style="fill:#ffffff;fill-opacity:1;fill-rule:nonzero;stroke:none"
             id="path64" />
        </g>
        <g
           id="g66"
           transform="translate(293.9482,296.0679)">
          <path
             d="m 0,0 -36.945,-3.534 0.459,6.404 35.618,3.404 C -0.556,4.122 -0.264,2.012 0,0"
             style="fill:#eaeaea;fill-opacity:1;fill-rule:nonzero;stroke:none"
             id="path68" />
        </g>
        <g
           id="g70"
           transform="translate(291.9844,309.6416)">
          <path
             d="m 0,0 -33.994,-3.248 0.459,6.399 32.548,3.107 C -0.658,4.225 -0.329,2.121 0,0"
             style="fill:#eaeaea;fill-opacity:1;fill-rule:nonzero;stroke:none"
             id="path72" />
        </g>
        <g
           id="g74"
           transform="translate(289.8047,323.189)">
          <path
             d="m 0,0 -30.821,-2.94 0.458,6.398 29.311,2.8 C -0.744,4.456 -0.388,2.336 0,0"
             style="fill:#eaeaea;fill-opacity:1;fill-rule:nonzero;stroke:none"
             id="path76" />
        </g>
        <g
           id="g78"
           transform="translate(332.335,292.4585)">
          <path
             d="m 0,0 -12.916,-8.352 -16.692,25.298 c 3.447,5.929 9.042,10.056 13.012,12.43 C -9.792,17.588 0,0 0,0"
             style="fill:#ff94a9;fill-opacity:1;fill-rule:nonzero;stroke:none"
             id="path80" />
        </g>
        <g
           id="g82"
           transform="translate(315.7393,321.8345)">
          <path
             d="m 0,0 c -3.971,-2.374 -9.565,-6.501 -13.013,-12.43 l -3.787,5.74 c 0.238,-0.399 1.71,-3.415 -1.252,-13.633 -3.205,-11.06 2.18,-25.033 1.797,-24.78 -0.389,0.259 -8.206,7.478 -10.769,19.126 -2.568,11.643 -7.91,47.968 -12.225,54.037 C -19.784,25.411 -8.632,13.396 -6.129,10.17 -5.368,9.193 -2.967,5.147 0,0"
             style="fill:#4ca1ff;fill-opacity:1;fill-rule:nonzero;stroke:none"
             id="path84" />
        </g>
        <g
           id="g86"
           transform="translate(237.748,299.9375)">
          <path
             d="m 0,0 c 0,0 -11.725,15.896 -7.11,31.281 4.615,15.384 30.212,18.675 30.212,18.675 0,0 8.12,-19.316 6.582,-43.995 -1.538,-24.678 -10.128,-53.524 -12.692,-52.754 -2.564,0.769 -23.049,6.998 -25.178,15.806 C -7.238,-25.255 2.11,-6.667 0,0"
             style="fill:#4ca1ff;fill-opacity:1;fill-rule:nonzero;stroke:none"
             id="path88" />
        </g>
        <g
           id="g90"
           transform="translate(301.8516,271.522)">
          <path
             d="m 0,0 14.876,33.254 c 0.343,0.766 1.365,1.284 2.285,1.157 l 19.978,-2.763 c 0.92,-0.127 2.655,-2.101 2.312,-2.867 L 23.308,-3.223 C 22.966,-3.989 21.942,-4.507 21.022,-4.379 L 1.615,-3.104 C 0.696,-2.977 -0.342,-0.766 0,0"
             style="fill:#90a6ff;fill-opacity:1;fill-rule:nonzero;stroke:none"
             id="path92" />
        </g>
        <g
           id="g94"
           transform="translate(304.0547,268.2261)">
          <path
             d="m 0,0 19.978,-2.763 c 0.919,-0.127 1.943,0.391 2.285,1.157 l 14.876,33.254 c 0.342,0.766 -0.125,1.49 -1.045,1.617 l -19.978,2.762 c -0.92,0.128 -1.942,-0.39 -2.285,-1.156 L -1.045,1.617 C -1.388,0.851 -0.92,0.127 0,0"
             style="fill:#c7ddff;fill-opacity:1;fill-rule:nonzero;stroke:none"
             id="path96" />
        </g>
        <g
           id="g98"
           transform="translate(333.5439,292.4805)">
          <path
             d="M 0,0 V 0 C 0.96,-0.133 2.027,0.408 2.386,1.208 L 4.11,5.062 C 4.468,5.862 3.979,6.618 3.02,6.751 2.06,6.883 0.992,6.343 0.635,5.543 L -1.09,1.688 C -1.448,0.889 -0.96,0.133 0,0"
             style="fill:#4a0945;fill-opacity:1;fill-rule:nonzero;stroke:none"
             id="path100" />
        </g>
        <g
           id="g102"
           transform="translate(237.748,299.9375)">
          <path
             d="m 0,0 c 4.428,8.205 15.325,9.615 15.325,9.615 l 7.777,-18.076 35.426,-6.143 c 0,0 3.718,2.633 5.978,2.922 2.26,0.288 8.605,4.134 10.192,3.269 1.586,-0.866 -4.664,-6.731 -4.664,-6.731 0,0 2.789,-0.625 6.779,-1.009 3.991,-0.385 8.99,1.538 8.509,-0.866 -0.48,-2.403 -6.442,-10.191 -11.73,-10.48 -5.288,-0.289 -15.384,2.372 -15.384,2.372 l -39.37,0.696 c -3.651,0.065 -6.98,2.106 -8.692,5.331 z"
             style="fill:#ff94a9;fill-opacity:1;fill-rule:nonzero;stroke:none"
             id="path104" />
        </g>
        <g
           id="g106"
           transform="translate(253.0732,309.5522)">
          <path
             d="M 0,0 -5.769,16.034"
             style="fill:none;stroke:#0063bc;stroke-width:1.079;stroke-linecap:round;stroke-linejoin:round;stroke-miterlimit:10;stroke-dasharray:none;stroke-opacity:1"
             id="path108" />
        </g>
        <g
           id="g110"
           transform="translate(298.9395,315.1445)">
          <path
             d="M 0,0 C -5.964,9.215 -6.829,16.715 -6.829,16.715"
             style="fill:none;stroke:#0063bc;stroke-width:1.079;stroke-linecap:round;stroke-linejoin:round;stroke-miterlimit:10;stroke-dasharray:none;stroke-opacity:1"
             id="path112" />
        </g>
        <g
           id="g114"
           transform="translate(327.7295,269.7769)">
          <path
             d="m 0,0 c -4.936,0.641 -3.377,6.892 -3.377,10.033 0,3.141 0.064,5.962 1.731,6.154 1.667,0.192 6.73,-3.462 8.269,-3.333 C 8.161,12.982 9.103,5.833 0,0"
             style="fill:#ff94a9;fill-opacity:1;fill-rule:nonzero;stroke:none"
             id="path116" />
        </g>
        <g
           id="g118"
           transform="translate(278.373,355.1924)">
          <path
             d="m 0,0 c -0.404,-2.12 -0.723,-4.413 -0.998,-6.317 -0.064,-0.454 -0.13,-0.885 -0.189,-1.285 -0.183,-1.23 -0.34,-2.185 -0.497,-2.654 -0.42,-1.289 -3.695,-3.911 -8.211,-1.926 -4.515,1.991 -7.558,4.241 -7.628,6.884 0,0 2.498,7.98 3.307,13.267 0.08,0.539 0.146,1.052 0.195,1.527 0.037,0.447 0.058,0.863 0.053,1.23 l 1.036,-0.793 0.642,-0.492 z"
             style="fill:#ff94a9;fill-opacity:1;fill-rule:nonzero;stroke:none"
             id="path120" />
        </g>
        <g
           id="g122"
           transform="translate(278.373,355.1924)">
          <path
             d="m 0,0 c -0.404,-2.12 -0.723,-4.413 -0.998,-6.317 -0.064,-0.454 -0.13,-0.885 -0.189,-1.285 -9.533,-2.238 -13.013,4.84 -13.029,15.571 0,0.501 0.005,1.014 0.022,1.532 l 0.173,-0.005 1.731,-0.055 z"
             style="fill:#d9568e;fill-opacity:1;fill-rule:nonzero;stroke:none"
             id="path124" />
        </g>
        <g
           id="g126"
           transform="translate(289.5674,378.917)">
          <path
             d="m 0,0 c -9.152,-8.093 -22.159,-4.261 -22.159,-4.261 0,0 -0.148,-8.256 -1.267,-9.075 -1.12,-0.819 -0.168,6.79 -4.985,6.046 -4.818,-0.743 -2.188,-9.67 2.873,-8.408 0,0 3.324,-12.448 14.078,-11.948 C -0.706,-27.146 -0.514,-15.584 0,0"
             style="fill:#ff94a9;fill-opacity:1;fill-rule:nonzero;stroke:none"
             id="path128" />
        </g>
        <g
           id="g130"
           transform="translate(278.5293,357.5356)">
          <path
             d="m 0,0 c -0.118,-1.322 -1.286,-2.299 -2.608,-2.181 -1.323,0.118 -2.298,1.286 -2.181,2.608 z"
             style="fill:#ffffff;fill-opacity:1;fill-rule:nonzero;stroke:none"
             id="path132" />
        </g>
        <g
           id="g134"
           transform="translate(262.1641,365.2715)">
          <path
             d="M 0,0 C 2.146,0.049 1.225,4.111 -1.005,3.457"
             style="fill:none;stroke:#d9568e;stroke-width:0.54;stroke-linecap:round;stroke-linejoin:round;stroke-miterlimit:10;stroke-dasharray:none;stroke-opacity:1"
             id="path136" />
        </g>
        <g
           id="g138"
           transform="translate(279.6309,367.8188)">
          <path
             d="M 0,0 C 0.087,-0.164 1.319,-2.746 2.22,-4.634 2.684,-5.608 2.059,-6.75 0.987,-6.885 l -2.825,-0.357"
             style="fill:none;stroke:#d9568e;stroke-width:0.54;stroke-linecap:round;stroke-linejoin:round;stroke-miterlimit:10;stroke-dasharray:none;stroke-opacity:1"
             id="path140" />
        </g>
        <g
           id="g142"
           transform="translate(273.2578,365.4243)">
          <path
             d="m 0,0 c -0.121,-0.546 0.224,-1.086 0.769,-1.208 0.545,-0.121 1.086,0.224 1.208,0.77 C 2.098,0.107 1.753,0.647 1.207,0.769 0.662,0.89 0.121,0.545 0,0"
             style="fill:#4a0945;fill-opacity:1;fill-rule:nonzero;stroke:none"
             id="path144" />
        </g>
        <g
           id="g146"
           transform="translate(284.3516,366.377)">
          <path
             d="M 0,0 C -0.121,-0.546 0.224,-1.086 0.769,-1.208 1.314,-1.329 1.855,-0.984 1.977,-0.439 2.098,0.107 1.753,0.647 1.208,0.769 0.662,0.89 0.121,0.545 0,0"
             style="fill:#4a0945;fill-opacity:1;fill-rule:nonzero;stroke:none"
             id="path148" />
        </g>
        <g
           id="g150"
           transform="translate(276.1299,369.0225)">
          <path
             d="M 0,0 C 0,0 -2.55,1.485 -4.298,-0.622"
             style="fill:none;stroke:#4a0945;stroke-width:0.54;stroke-linecap:round;stroke-linejoin:miter;stroke-miterlimit:10;stroke-dasharray:none;stroke-opacity:1"
             id="path152" />
        </g>
        <g
           id="g154"
           transform="translate(287.1162,369.4575)">
          <path
             d="M 0,0 C 0,0 -2.551,1.485 -4.299,-0.622"
             style="fill:none;stroke:#4a0945;stroke-width:0.54;stroke-linecap:round;stroke-linejoin:miter;stroke-miterlimit:10;stroke-dasharray:none;stroke-opacity:1"
             id="path156" />
        </g>
        <g
           id="g158">
          <g
             id="g160" />
          <g
             id="g172">
            <g
               clip-path="url(#clipPath164)"
               opacity="0.410004"
               id="g170">
              <g
                 transform="translate(431.2998,277.2563)"
                 id="g168">
                <path
                   d="m 0,0 -72.374,-13.898 c -1.569,-0.301 -2.597,0.624 -2.295,2.067 l 9.602,45.872 c 0.301,1.442 1.819,2.856 3.388,3.158 l 72.374,13.898 c 1.57,0.301 2.597,-0.624 2.295,-2.067 L 3.389,3.158 C 3.087,1.715 1.569,0.301 0,0"
                   style="fill:#6d4aff;fill-opacity:1;fill-rule:nonzero;stroke:none"
                   id="path166" />
              </g>
            </g>
          </g>
        </g>
        <g
           id="g174">
          <g
             id="g176" />
          <g
             id="g188">
            <g
               clip-path="url(#clipPath180)"
               opacity="0.410004"
               id="g186">
              <g
                 transform="translate(434.377,273.8608)"
                 id="g184">
                <path
                   d="m 0,0 -72.374,-13.898 c -1.569,-0.301 -2.597,0.624 -2.295,2.067 l 9.602,45.872 c 0.301,1.442 1.818,2.856 3.387,3.158 l 72.375,13.898 c 1.57,0.301 2.596,-0.624 2.294,-2.067 L 3.388,3.159 C 3.086,1.715 1.569,0.302 0,0 Z"
                   style="fill:none;stroke:#6d4aff;stroke-width:0.54;stroke-linecap:butt;stroke-linejoin:miter;stroke-miterlimit:10;stroke-dasharray:none;stroke-opacity:1"
                   id="path182" />
              </g>
            </g>
          </g>
        </g>
        <g
           id="g190"
           transform="translate(369.9775,285.4785)">
          <path
             d="m 0,0 c 7.369,1.415 6.967,-4.263 13.722,-2.965 6.755,1.297 9.027,11.217 13.94,12.161 4.912,0.943 2.943,-3.771 6.935,-3.004 3.992,0.766 3.58,8.184 11.665,9.737 8.086,1.553 7.095,9.492 18.251,11.634"
             style="fill:none;stroke:#ffffff;stroke-width:1.619;stroke-linecap:round;stroke-linejoin:round;stroke-miterlimit:10;stroke-dasharray:none;stroke-opacity:1"
             id="path192" />
        </g>
        <g
           id="g194"
           transform="translate(374.3311,306.2769)">
          <path
             d="M 0,0 5.94,1.141"
             style="fill:none;stroke:#ffffff;stroke-width:1.619;stroke-linecap:round;stroke-linejoin:round;stroke-miterlimit:10;stroke-dasharray:none;stroke-opacity:1"
             id="path196" />
        </g>
        <g
           id="g198"
           transform="translate(373.4443,302.042)">
          <path
             d="M 0,0 11.054,2.123"
             style="fill:none;stroke:#ffffff;stroke-width:1.619;stroke-linecap:round;stroke-linejoin:round;stroke-miterlimit:10;stroke-dasharray:none;stroke-opacity:1"
             id="path200" />
        </g>
        <g
           id="g202"
           transform="translate(385.5996,181.1748)">
          <path
             d="m 0,0 -23.7,-9.074 -20.552,18.669 23.699,9.074 z"
             style="fill:#a275ff;fill-opacity:1;fill-rule:nonzero;stroke:none"
             id="path204" />
        </g>
        <g
           id="g206"
           transform="translate(392.3623,205.6348)">
          <path
             d="m 0,0 -6.763,-24.46 -20.552,18.669 6.762,24.461 z"
             style="fill:#6d4aff;fill-opacity:1;fill-rule:nonzero;stroke:none"
             id="path208" />
        </g>
        <g
           id="g210"
           transform="translate(341.3477,190.7695)">
          <path
             d="M 0,0 6.967,24.274 30.462,33.535 23.699,9.074 Z"
             style="fill:#cab1ff;fill-opacity:1;fill-rule:nonzero;stroke:none"
             id="path212" />
        </g>
        <g
           id="g214"
           transform="translate(427.5557,218.1924)">
          <path
             d="M 0,0 -5.077,24.865 16.702,42.087 21.778,17.222 Z"
             style="fill:#a275ff;fill-opacity:1;fill-rule:nonzero;stroke:none"
             id="path216" />
        </g>
        <g
           id="g218"
           transform="translate(450.5801,207.5205)">
          <path
             d="M 0,0 -23.024,10.672 -1.246,27.894 21.779,17.222 Z"
             style="fill:#6d4aff;fill-opacity:1;fill-rule:nonzero;stroke:none"
             id="path220" />
        </g>
        <g
           id="g222"
           transform="translate(444.2578,260.2793)">
          <path
             d="M 0,0 22.808,-10.844 28.102,-35.537 5.076,-24.865 Z"
             style="fill:#cab1ff;fill-opacity:1;fill-rule:nonzero;stroke:none"
             id="path224" />
        </g>
        <g
           id="g226">
          <g
             id="g228" />
          <g
             id="g240">
            <g
               clip-path="url(#clipPath232)"
               opacity="0.410004"
               id="g238">
              <g
                 transform="translate(364.7686,228.6758)"
                 id="g236">
                <path
                   d="m 0,0 -53.221,-10.22 c -1.808,-0.347 -2.993,0.719 -2.644,2.383 l 9.559,45.675 c 0.349,1.663 2.097,3.293 3.906,3.64 l 53.22,10.22 c 1.81,0.347 2.993,-0.719 2.646,-2.383 L 3.905,3.641 C 3.558,1.978 1.809,0.348 0,0"
                   style="fill:#6d4aff;fill-opacity:1;fill-rule:nonzero;stroke:none"
                   id="path234" />
              </g>
            </g>
          </g>
        </g>
        <g
           id="g242">
          <g
             id="g244" />
          <g
             id="g256">
            <g
               clip-path="url(#clipPath248)"
               opacity="0.410004"
               id="g254">
              <g
                 transform="translate(360.8047,233.0947)"
                 id="g252">
                <path
                   d="m 0,0 -53.221,-10.22 c -1.809,-0.347 -2.993,0.719 -2.645,2.383 l 9.56,45.675 c 0.348,1.663 2.097,3.293 3.906,3.64 l 53.22,10.22 c 1.809,0.347 2.993,-0.719 2.645,-2.383 L 3.905,3.641 C 3.557,1.978 1.809,0.348 0,0 Z"
                   style="fill:none;stroke:#6d4aff;stroke-width:0.54;stroke-linecap:butt;stroke-linejoin:miter;stroke-miterlimit:10;stroke-dasharray:none;stroke-opacity:1"
                   id="path250" />
              </g>
            </g>
          </g>
        </g>
        <g
           id="g258"
           transform="translate(360.3506,252.6367)">
          <path
             d="m 0,0 c -1.783,-8.522 -10.747,-16.874 -20.01,-18.652 -9.268,-1.781 -15.335,3.684 -13.551,12.208 1.785,8.522 10.742,16.872 20.01,18.652 L -16.78,-3.222 -1.707,8.988 C 0.076,6.786 0.771,3.681 0,0"
             style="fill:#ffffff;fill-opacity:1;fill-rule:nonzero;stroke:none"
             id="path260" />
        </g>
        <g
           id="g262"
           transform="translate(358.6436,261.6245)">
          <path
             d="m 0,0 -15.073,-12.21 3.229,15.43 C -6.577,4.231 -2.347,2.899 0,0"
             style="fill:#6d4aff;fill-opacity:1;fill-rule:nonzero;stroke:none"
             id="path264" />
        </g>
        <g
           id="g266">
          <g
             id="g268" />
          <g
             id="g280">
            <g
               clip-path="url(#clipPath272)"
               opacity="0.410004"
               id="g278">
              <g
                 transform="translate(308.1582,240.6367)"
                 id="g276">
                <path
                   d="m 0,0 26.896,55.219 39.756,15.61"
                   style="fill:none;stroke:#6d4aff;stroke-width:0.54;stroke-linecap:butt;stroke-linejoin:miter;stroke-miterlimit:10;stroke-dasharray:none;stroke-opacity:1"
                   id="path274" />
              </g>
            </g>
          </g>
        </g>
        <g
           id="g282">
          <g
             id="g284" />
          <g
             id="g296">
            <g
               clip-path="url(#clipPath288)"
               opacity="0.410004"
               id="g294">
              <g
                 transform="translate(341.3477,190.7695)"
                 id="g292">
                <path
                   d="M 0,0 -6.294,105.086 51.015,14.865"
                   style="fill:none;stroke:#6d4aff;stroke-width:0.54;stroke-linecap:butt;stroke-linejoin:miter;stroke-miterlimit:10;stroke-dasharray:none;stroke-opacity:1"
                   id="path290" />
              </g>
            </g>
          </g>
        </g>
        <g
           id="g298">
          <g
             id="g300" />
          <g
             id="g312">
            <g
               clip-path="url(#clipPath304)"
               opacity="0.410004"
               id="g310">
              <g
                 transform="translate(444.2578,260.2793)"
                 id="g308">
                <path
                   d="m 0,0 -109.204,35.577 92.502,-77.664"
                   style="fill:none;stroke:#6d4aff;stroke-width:0.54;stroke-linecap:butt;stroke-linejoin:miter;stroke-miterlimit:10;stroke-dasharray:none;stroke-opacity:1"
                   id="path306" />
              </g>
            </g>
          </g>
        </g>
        <g
           id="g314"
           transform="translate(133.7256,131.3125)">
          <path
             d="M 0,0 C 0,0 5.053,-41.033 6.582,-42.011 8.111,-42.987 28.439,1.594 27.093,3.083 25.747,4.572 15.317,13.526 15.317,13.526"
             style="fill:#8136ff;fill-opacity:1;fill-rule:nonzero;stroke:none"
             id="path316" />
        </g>
        <g
           id="g318"
           transform="translate(124.5874,119.7939)">
          <path
             d="m 0,0 c 0,0 -13.051,-39.229 -12.09,-40.768 0.962,-1.538 38.461,29.999 37.883,31.922 -0.576,1.923 -6.152,14.488 -6.152,14.488"
             style="fill:#a275ff;fill-opacity:1;fill-rule:nonzero;stroke:none"
             id="path320" />
        </g>
        <g
           id="g322"
           transform="translate(144.5029,263.5522)">
          <path
             d="m 0,0 c 0,0 -19.364,-44.531 -21.454,-53.376 -2.09,-8.846 16.105,-76.537 16.105,-76.537 l 14.239,7.308 -3.589,66.023 21.922,51.525"
             style="fill:#2b022b;fill-opacity:1;fill-rule:nonzero;stroke:none"
             id="path324" />
        </g>
        <g
           id="g326"
           transform="translate(169.3872,256.7383)">
          <path
             d="m 0,0 c 0,0 -55.736,-39.512 -62.915,-47.46 -7.179,-7.948 18.115,-89.484 18.115,-89.484 0,0 20.413,5.128 19.641,5.641 -0.772,0.513 -9.674,68.665 -9.674,68.665 0,0 52.428,21.331 59.863,34.664 7.436,13.333 7.179,26.153 7.179,26.153"
             style="fill:#4a0945;fill-opacity:1;fill-rule:nonzero;stroke:none"
             id="path328" />
        </g>
        <g
           id="g330"
           transform="translate(150.7085,296.7964)">
          <path
             d="m 0,0 c -5.827,-6.453 -13.488,-14.901 -14.076,-15.376 -0.96,-0.766 -26.155,-2.627 -26.155,-2.627 l 0.793,13.59 17.669,2.983 c 0,0 4.607,6.868 10.563,14.67 C -4.64,9.549 -1.333,3.227 0,0"
             style="fill:#d9568e;fill-opacity:1;fill-rule:nonzero;stroke:none"
             id="path332" />
        </g>
        <g
           id="g334"
           transform="translate(213.1421,274.8843)">
          <path
             d="m 0,0 c -1.138,-0.993 -2.32,-1.926 -3.534,-2.789 0,0 -0.453,-1.155 -1.127,-2.93 -0.443,-1.149 -0.971,-2.552 -1.532,-4.068 -0.74,-1.98 -1.527,-4.143 -2.229,-6.171 -1.198,-3.432 -2.158,-6.485 -2.223,-7.602 -0.194,-3.075 -12.98,-4.133 -26.829,-0.674 -13.844,3.463 -33.17,12.597 -32.975,14.809 0.151,1.748 3.976,6.889 6.226,10.688 h 0.005 c 0.432,0.728 0.804,1.408 1.085,2.007 0.108,0.226 0.199,0.437 0.275,0.636 0.345,0.901 0.982,3.016 1.732,5.659 0.399,1.409 0.831,2.962 1.268,4.565 0.587,2.158 1.192,4.397 1.748,6.469 1.224,4.602 2.206,8.383 2.265,8.615 l -0.027,-0.027 c -0.339,-0.372 -3.129,-3.479 -6.56,-7.277 -0.103,0.242 -0.211,0.507 -0.34,0.787 -1.516,3.383 -4.796,9.042 -10.866,12.452 6.928,9.069 15.689,19.401 21.165,21.672 10.192,4.23 33.941,-1.154 33.941,-1.154 l 3.658,-0.383 c 0,0 20.766,-4.489 27.946,-16.283 C 19.644,28.2 12.355,10.742 0,0"
             style="fill:#a275ff;fill-opacity:1;fill-rule:nonzero;stroke:none"
             id="path336" />
        </g>
        <g
           id="g338"
           transform="translate(206.9487,265.0977)">
          <path
             d="m 0,0 c -0.739,-1.98 -1.527,-4.144 -2.229,-6.172 -15.392,2.962 -37.334,9.625 -54.711,19.228 0.108,0.227 0.2,0.437 0.275,0.637 0.345,0.901 0.982,3.015 1.732,5.659 C -37.377,9.372 -14.761,2.746 0,0"
             style="fill:#c1b0ff;fill-opacity:1;fill-rule:nonzero;stroke:none"
             id="path340" />
        </g>
        <g
           id="g342"
           transform="translate(213.1421,274.8843)">
          <path
             d="m 0,0 c -1.138,-0.993 -2.32,-1.926 -3.534,-2.789 0,0 -0.453,-1.155 -1.127,-2.93 -15.776,3.135 -37.96,10.008 -55.197,19.849 0.587,2.158 1.192,4.397 1.748,6.469 C -39.751,9.728 -15.155,2.644 0,0"
             style="fill:#c1b0ff;fill-opacity:1;fill-rule:nonzero;stroke:none"
             id="path344" />
        </g>
        <g
           id="g346"
           transform="translate(107.1353,281.3335)">
          <path
             d="M 0,0 C 2.694,3.235 2.351,8.681 6.036,6.26 9.721,3.839 7.734,-3.303 7.734,-3.303"
             style="fill:#ff94a9;fill-opacity:1;fill-rule:nonzero;stroke:none"
             id="path348" />
        </g>
        <g
           id="g350"
           transform="translate(140.5576,261.2568)">
          <path
             d="m 0,0 -8.626,35.394 c -0.199,0.814 -1.111,1.509 -2.039,1.55 l -20.148,0.89 c -0.928,0.041 -2.991,-1.586 -2.792,-2.402 L -23.506,1.039 c 0.198,-0.815 1.111,-1.509 2.038,-1.55 l 19.319,-2.25 C -1.222,-2.802 0.199,-0.815 0,0"
             style="fill:#90a6ff;fill-opacity:1;fill-rule:nonzero;stroke:none"
             id="path352" />
        </g>
        <g
           id="g354"
           transform="translate(137.7964,258.4126)">
          <path
             d="m 0,0 -20.148,0.891 c -0.928,0.041 -1.841,0.735 -2.039,1.55 l -8.626,35.393 c -0.199,0.815 0.392,1.443 1.319,1.402 l 20.148,-0.89 c 0.928,-0.041 1.84,-0.735 2.039,-1.551 L 1.319,1.402 C 1.518,0.587 0.927,-0.041 0,0"
             style="fill:#c7ddff;fill-opacity:1;fill-rule:nonzero;stroke:none"
             id="path356" />
        </g>
        <g
           id="g358"
           transform="translate(113.1714,287.5937)">
          <path
             d="m 0,0 v 0 c -0.968,0.042 -1.921,0.767 -2.128,1.618 l -1,4.104 c -0.208,0.851 0.409,1.506 1.377,1.463 0.968,-0.043 1.92,-0.768 2.128,-1.619 l 1,-4.103 C 1.584,0.612 0.968,-0.043 0,0"
             style="fill:#4a0945;fill-opacity:1;fill-rule:nonzero;stroke:none"
             id="path360" />
        </g>
        <g
           id="g362"
           transform="translate(107.6597,281.8828)">
          <path
             d="m 0,0 c 5.3,-0.712 12.559,0.723 14.327,-0.116 1.768,-0.839 2.827,-11.749 -0.587,-12.96 -3.415,-1.21 -8.576,-1.772 -11.155,0.591 C 0.006,-10.123 -2.694,-1.906 0,0"
             style="fill:#ff94a9;fill-opacity:1;fill-rule:nonzero;stroke:none"
             id="path364" />
        </g>
        <g
           id="g366"
           transform="translate(194.4175,283.8906)">
          <path
             d="m 0,0 -14.363,-15 -32.174,7.5 c 0,0 -12.114,11.667 -13.653,10.032 -1.538,-1.635 2.116,-9.135 2.116,-9.135 0,0 -15.384,1.731 -16.346,1.154 -0.961,-0.576 3.942,-12.307 9.423,-13.653 5.48,-1.346 17.691,-1.25 17.691,-1.25 l 33.127,-10.863 c 3.684,-1.209 7.734,-0.339 10.597,2.276 l 18.774,17.145 c 0,0 0.192,11.185 -15.192,11.794"
             style="fill:#ff94a9;fill-opacity:1;fill-rule:nonzero;stroke:none"
             id="path368" />
        </g>
        <g
           id="g370"
           transform="translate(194.4175,283.8906)">
          <path
             d="M 0,0 13.077,18.589"
             style="fill:none;stroke:#6d38c9;stroke-width:1.079;stroke-linecap:round;stroke-linejoin:round;stroke-miterlimit:10;stroke-dasharray:none;stroke-opacity:1"
             id="path372" />
        </g>
        <g
           id="g374"
           transform="translate(157.269,304.0747)">
          <path
             d="M 0,0 3.304,10.904"
             style="fill:none;stroke:#6d38c9;stroke-width:1.079;stroke-linecap:round;stroke-linejoin:round;stroke-miterlimit:10;stroke-dasharray:none;stroke-opacity:1"
             id="path376" />
        </g>
        <g
           id="g378"
           transform="translate(178.8506,360.2817)">
          <path
             d="m 0,0 c -7.894,5.577 -6.256,10.769 -3.165,10.705 3.092,-0.064 5.189,-0.897 5.189,-0.897 0,0 -3.773,4.422 -1.012,6.73 2.761,2.308 26.029,-4.423 29.426,-8.269 3.397,-3.846 0.449,-10.961 0.449,-10.961 0,0 6.987,-3.303 0.962,-9.664 -6.026,-6.361 -10.128,-11.104 -13.718,-9.951"
             style="fill:#4a0945;fill-opacity:1;fill-rule:nonzero;stroke:none"
             id="path380" />
        </g>
        <g
           id="g382"
           transform="translate(200.0576,329.0806)">
          <path
             d="m 0,0 c -0.642,-2.563 -4.1,-4.1 -8.94,-5.066 -4.839,-0.96 -7.467,2.309 -7.596,3.658 -0.065,0.658 0.043,2.147 0.183,3.992 0.146,1.921 0.33,4.23 0.395,6.388 L -1.182,15.862 0,16.412 C -1.025,11.988 0,0 0,0"
             style="fill:#ff94a9;fill-opacity:1;fill-rule:nonzero;stroke:none"
             id="path384" />
        </g>
        <g
           id="g386"
           transform="translate(199.0327,344.9155)">
          <path
             d="m 0,0 c -0.934,-8.449 -6.847,-15.786 -15.328,-13.25 0.146,1.92 0.329,4.229 0.394,6.387 l 14.777,6.89 z"
             style="fill:#d9568e;fill-opacity:1;fill-rule:nonzero;stroke:none"
             id="path388" />
        </g>
        <g
           id="g390"
           transform="translate(178.3149,365.3101)">
          <path
             d="m 0,0 c 7.181,-9.884 20.709,-8.961 20.709,-8.961 0,0 -1.645,-8.091 -0.73,-9.134 0.916,-1.042 1.635,6.592 6.177,4.823 4.542,-1.77 0.041,-9.915 -4.627,-7.586 0,0 -5.942,-11.432 -16.332,-8.614 C -5.193,-26.654 -2.876,-15.325 0,0"
             style="fill:#ff94a9;fill-opacity:1;fill-rule:nonzero;stroke:none"
             id="path392" />
        </g>
        <g
           id="g394"
           transform="translate(202.1099,346.0518)">
          <path
             d="M 0,0 C -2.083,0.513 -0.305,4.278 1.73,3.157"
             style="fill:none;stroke:#d9568e;stroke-width:0.54;stroke-linecap:round;stroke-linejoin:round;stroke-miterlimit:10;stroke-dasharray:none;stroke-opacity:1"
             id="path396" />
        </g>
        <g
           id="g398"
           transform="translate(185.9888,352.061)">
          <path
             d="m 0,0 c -0.122,-0.142 -1.884,-2.395 -3.171,-4.043 -0.665,-0.85 -0.302,-2.101 0.714,-2.465 l 2.681,-0.96"
             style="fill:none;stroke:#d9568e;stroke-width:0.54;stroke-linecap:round;stroke-linejoin:round;stroke-miterlimit:10;stroke-dasharray:none;stroke-opacity:1"
             id="path400" />
        </g>
        <g
           id="g402"
           transform="translate(193.5664,347.9263)">
          <path
             d="m 0,0 c 0,-0.559 -0.453,-1.012 -1.012,-1.012 -0.559,0 -1.012,0.453 -1.012,1.012 0,0.559 0.453,1.012 1.012,1.012 C -0.453,1.012 0,0.559 0,0"
             style="fill:#4a0945;fill-opacity:1;fill-rule:nonzero;stroke:none"
             id="path404" />
        </g>
        <g
           id="g406"
           transform="translate(181.0669,351.6758)">
          <path
             d="m 0,0 c 0,-0.559 -0.453,-1.012 -1.012,-1.012 -0.559,0 -1.012,0.453 -1.012,1.012 0,0.559 0.453,1.012 1.012,1.012 C -0.453,1.012 0,0.559 0,0"
             style="fill:#4a0945;fill-opacity:1;fill-rule:nonzero;stroke:none"
             id="path408" />
        </g>
        <g
           id="g410"
           transform="translate(191.542,352.061)">
          <path
             d="M 0,0 C 0,0 2.812,0.897 4.062,-1.539"
             style="fill:none;stroke:#4a0945;stroke-width:0.54;stroke-linecap:round;stroke-linejoin:miter;stroke-miterlimit:10;stroke-dasharray:none;stroke-opacity:1"
             id="path412" />
        </g>
        <g
           id="g414"
           transform="translate(179.0361,355.2827)">
          <path
             d="M 0,0 C 0,0 2.812,0.897 4.062,-1.539"
             style="fill:none;stroke:#4a0945;stroke-width:0.54;stroke-linecap:round;stroke-linejoin:miter;stroke-miterlimit:10;stroke-dasharray:none;stroke-opacity:1"
             id="path416" />
        </g>
        <g
           id="g418"
           transform="translate(185.8232,341.5073)">
          <path
             d="M 0,0 C 0,0 1.838,-1.095 3.977,0.246"
             style="fill:none;stroke:#d9568e;stroke-width:0.54;stroke-linecap:round;stroke-linejoin:round;stroke-miterlimit:10;stroke-dasharray:none;stroke-opacity:1"
             id="path420" />
        </g>
        <g
           id="g422">
          <g
             id="g424" />
          <g
             id="g436">
            <g
               clip-path="url(#clipPath428)"
               opacity="0.449997"
               id="g434">
              <g
                 transform="translate(45.1548,237.9189)"
                 id="g432">
                <path
                   d="m 0,0 72.374,-13.898 c 1.569,-0.301 2.597,0.624 2.295,2.067 L 65.067,34.04 c -0.302,1.443 -1.818,2.857 -3.388,3.158 l -72.374,13.899 c -1.57,0.301 -2.597,-0.625 -2.295,-2.068 L -3.388,3.158 C -3.086,1.715 -1.569,0.301 0,0"
                   style="fill:#4ca1ff;fill-opacity:1;fill-rule:nonzero;stroke:none"
                   id="path430" />
              </g>
            </g>
          </g>
        </g>
        <g
           id="g438">
          <g
             id="g440" />
          <g
             id="g452">
            <g
               clip-path="url(#clipPath444)"
               opacity="0.449997"
               id="g450">
              <g
                 transform="translate(40.6831,234.9092)"
                 id="g448">
                <path
                   d="m 0,0 72.374,-13.898 c 1.569,-0.301 2.597,0.624 2.294,2.067 l -9.601,45.872 c -0.302,1.442 -1.818,2.856 -3.388,3.158 l -72.374,13.898 c -1.57,0.301 -2.597,-0.624 -2.295,-2.067 L -3.388,3.158 C -3.086,1.716 -1.569,0.302 0,0 Z"
                   style="fill:none;stroke:#4ca1ff;stroke-width:0.54;stroke-linecap:butt;stroke-linejoin:miter;stroke-miterlimit:10;stroke-dasharray:none;stroke-opacity:1"
                   id="path446" />
              </g>
            </g>
          </g>
        </g>
        <g
           id="g454"
           transform="translate(99.5552,262.4214)">
          <path
             d="M 0,0 -53.516,11.792"
             style="fill:none;stroke:#ffffff;stroke-width:1.619;stroke-linecap:round;stroke-linejoin:round;stroke-miterlimit:10;stroke-dasharray:none;stroke-opacity:1"
             id="path456" />
        </g>
        <g
           id="g458"
           transform="translate(100.9727,254.5552)">
          <path
             d="M 0,0 -53.516,11.792"
             style="fill:none;stroke:#ffffff;stroke-width:1.619;stroke-linecap:round;stroke-linejoin:round;stroke-miterlimit:10;stroke-dasharray:none;stroke-opacity:1"
             id="path460" />
        </g>
        <g
           id="g462"
           transform="translate(102.3901,246.6885)">
          <path
             d="M 0,0 -53.516,11.792"
             style="fill:none;stroke:#ffffff;stroke-width:1.619;stroke-linecap:round;stroke-linejoin:round;stroke-miterlimit:10;stroke-dasharray:none;stroke-opacity:1"
             id="path464" />
        </g>
        <g
           id="g466"
           transform="translate(103.8081,238.8223)">
          <path
             d="M 0,0 -33.63,7.41"
             style="fill:none;stroke:#ffffff;stroke-width:1.619;stroke-linecap:round;stroke-linejoin:round;stroke-miterlimit:10;stroke-dasharray:none;stroke-opacity:1"
             id="path468" />
        </g>
        <g
           id="g470">
          <g
             id="g472" />
          <g
             id="g484">
            <g
               clip-path="url(#clipPath476)"
               opacity="0.449997"
               id="g482">
              <g
                 transform="translate(115.8579,203.9424)"
                 id="g480">
                <path
                   d="m 0,0 43.311,-8.317 c 0.939,-0.181 1.553,0.374 1.373,1.237 l -5.746,27.45 c -0.181,0.863 -1.089,1.71 -2.028,1.89 L -6.4,30.577 c -0.939,0.18 -1.554,-0.374 -1.373,-1.237 L -2.027,1.89 C -1.847,1.026 -0.939,0.18 0,0"
                   style="fill:#4ca1ff;fill-opacity:1;fill-rule:nonzero;stroke:none"
                   id="path478" />
              </g>
            </g>
          </g>
        </g>
        <g
           id="g486">
          <g
             id="g488" />
          <g
             id="g500">
            <g
               clip-path="url(#clipPath492)"
               opacity="0.449997"
               id="g498">
              <g
                 transform="translate(112.3774,200.6084)"
                 id="g496">
                <path
                   d="m 0,0 43.31,-8.316 c 0.94,-0.181 1.554,0.373 1.373,1.237 l -5.745,27.45 c -0.181,0.863 -1.089,1.709 -2.028,1.89 L -6.4,30.577 c -0.939,0.181 -1.554,-0.373 -1.373,-1.236 L -2.027,1.891 C -1.847,1.026 -0.939,0.181 0,0 Z"
                   style="fill:none;stroke:#4ca1ff;stroke-width:0.54;stroke-linecap:butt;stroke-linejoin:miter;stroke-miterlimit:10;stroke-dasharray:none;stroke-opacity:1"
                   id="path494" />
              </g>
            </g>
          </g>
        </g>
        <g
           id="g502"
           transform="translate(148.4126,218.6045)">
          <path
             d="M 0,0 -32.025,7.057"
             style="fill:none;stroke:#ffffff;stroke-width:0.969;stroke-linecap:round;stroke-linejoin:round;stroke-miterlimit:10;stroke-dasharray:none;stroke-opacity:1"
             id="path504" />
        </g>
        <g
           id="g506"
           transform="translate(149.2607,213.8975)">
          <path
             d="M 0,0 -32.025,7.057"
             style="fill:none;stroke:#ffffff;stroke-width:0.969;stroke-linecap:round;stroke-linejoin:round;stroke-miterlimit:10;stroke-dasharray:none;stroke-opacity:1"
             id="path508" />
        </g>
        <g
           id="g510"
           transform="translate(150.1089,209.1904)">
          <path
             d="M 0,0 -32.025,7.057"
             style="fill:none;stroke:#ffffff;stroke-width:0.969;stroke-linecap:round;stroke-linejoin:round;stroke-miterlimit:10;stroke-dasharray:none;stroke-opacity:1"
             id="path512" />
        </g>
        <g
           id="g514"
           transform="translate(150.957,204.4824)">
          <path
             d="M 0,0 -20.125,4.435"
             style="fill:none;stroke:#ffffff;stroke-width:0.969;stroke-linecap:round;stroke-linejoin:round;stroke-miterlimit:10;stroke-dasharray:none;stroke-opacity:1"
             id="path516" />
        </g>
        <g
           id="g518"
           transform="translate(93.4375,139.5615)">
          <path
             d="M 0,0 -14.62,20.743 -1.574,45.253 13.046,24.51 Z"
             style="fill:#4ca1ff;fill-opacity:1;fill-rule:nonzero;stroke:none"
             id="path520" />
        </g>
        <g
           id="g522"
           transform="translate(118.8101,139.0166)">
          <path
             d="m 0,0 -25.373,0.545 13.047,24.51 25.372,-0.545 z"
             style="fill:#0063bc;fill-opacity:1;fill-rule:nonzero;stroke:none"
             id="path524" />
        </g>
        <g
           id="g526"
           transform="translate(91.8638,184.8145)">
          <path
             d="m 0,0 25.242,-0.789 14.75,-20.499 -25.372,0.545 z"
             style="fill:#80c3ff;fill-opacity:1;fill-rule:nonzero;stroke:none"
             id="path528" />
        </g>
        <g
           id="g530"
           transform="translate(49.4507,300.7847)">
          <path
             d="M 0,0 -1.994,11.338 8.095,18.877 10.089,7.54 Z"
             style="fill:#4ca1ff;fill-opacity:1;fill-rule:nonzero;stroke:none"
             id="path532" />
        </g>
        <g
           id="g534"
           transform="translate(59.7593,295.6606)">
          <path
             d="M 0,0 -10.309,5.124 -0.22,12.664 10.089,7.54 Z"
             style="fill:#0063bc;fill-opacity:1;fill-rule:nonzero;stroke:none"
             id="path536" />
        </g>
        <g
           id="g538"
           transform="translate(57.5459,319.6621)">
          <path
             d="m 0,0 10.208,-5.199 2.094,-11.263 -10.308,5.125 z"
             style="fill:#80c3ff;fill-opacity:1;fill-rule:nonzero;stroke:none"
             id="path540" />
        </g>
        <g
           id="g542">
          <g
             id="g544" />
          <g
             id="g556">
            <g
               clip-path="url(#clipPath548)"
               opacity="0.449997"
               id="g554">
              <g
                 transform="translate(32.2827,288.1958)"
                 id="g552">
                <path
                   d="m 0,0 80.013,2.99 7.528,-65.098"
                   style="fill:none;stroke:#4ca1ff;stroke-width:0.54;stroke-linecap:butt;stroke-linejoin:miter;stroke-miterlimit:10;stroke-dasharray:none;stroke-opacity:1"
                   id="path550" />
              </g>
            </g>
          </g>
        </g>
        <g
           id="g558">
          <g
             id="g560" />
          <g
             id="g572">
            <g
               clip-path="url(#clipPath564)"
               opacity="0.449997"
               id="g570">
              <g
                 transform="translate(109.458,234.5195)"
                 id="g568">
                <path
                   d="m 0,0 2.838,56.667 42.5,-66.874"
                   style="fill:none;stroke:#4ca1ff;stroke-width:0.54;stroke-linecap:butt;stroke-linejoin:miter;stroke-miterlimit:10;stroke-dasharray:none;stroke-opacity:1"
                   id="path566" />
              </g>
            </g>
          </g>
        </g>
        <g
           id="g574">
          <g
             id="g576" />
          <g
             id="g588">
            <g
               clip-path="url(#clipPath580)"
               opacity="0.449997"
               id="g586">
              <g
                 transform="translate(78.8174,160.3047)"
                 id="g584">
                <path
                   d="M 0,0 33.479,130.881 53.039,3.222"
                   style="fill:none;stroke:#4ca1ff;stroke-width:0.54;stroke-linecap:butt;stroke-linejoin:miter;stroke-miterlimit:10;stroke-dasharray:none;stroke-opacity:1"
                   id="path582" />
              </g>
            </g>
          </g>
        </g>
        <g
           id="g590">
          <g
             id="g592" />
          <g
             id="g604">
            <g
               clip-path="url(#clipPath596)"
               opacity="0.449997"
               id="g602">
              <g
                 transform="translate(57.5459,319.6621)"
                 id="g600">
                <path
                   d="M 0,0 54.75,-28.476 2.213,-24.001"
                   style="fill:none;stroke:#4ca1ff;stroke-width:0.54;stroke-linecap:butt;stroke-linejoin:miter;stroke-miterlimit:10;stroke-dasharray:none;stroke-opacity:1"
                   id="path598" />
              </g>
            </g>
          </g>
        </g>
      </g>
    </g>
  </g>
</svg>
