<?xml version="1.0" encoding="UTF-8"?>
<svg width="308px" height="37px" viewBox="0 0 308 37" version="1.1" xmlns="http://www.w3.org/2000/svg" xmlns:xlink="http://www.w3.org/1999/xlink">
    <!-- Generator: Sketch 52.6 (67491) - http://www.bohemiancoding.com/sketch -->
    <title>logo</title>
    <desc>Created with Sketch.</desc>
    <g id="Symbols" stroke="none" stroke-width="1" fill="none" fill-rule="evenodd">
        <g id="Header" transform="translate(-51.000000, -27.000000)" fill="#38452D">
            <g id="logo">
                <path d="M201.775995,30.781002 C202.322641,30.781002 202.744736,30.8271325 202.744736,31.1615787 C202.744736,31.4152965 202.493324,31.544462 201.985889,31.544462 C201.563794,31.544462 201.227042,31.544462 200.7173,31.6690143 C199.536359,32.0080736 199.199606,32.8960859 199.155782,35.2579679 L198.694477,61.9029501 C198.694477,62.8347864 198.523794,63.2130566 198.143217,63.2130566 C197.679606,63.2130566 197.17217,62.7494449 196.708558,62.2858333 C194.046828,59.7509618 188.642639,54.2199138 184.248708,49.8698068 C179.64719,45.3098059 174.96033,40.0301691 174.199176,39.2274983 L174.074624,39.2274983 L174.538236,56.9646791 C174.621271,60.2583974 175.17253,61.3563036 176.014412,61.6515388 C176.731741,61.9029501 177.536719,61.9490806 178.212531,61.9490806 C178.676142,61.9490806 178.92986,62.0321155 178.92986,62.2858333 C178.92986,62.6248926 178.546977,62.7079275 177.958813,62.7079275 C175.214048,62.7079275 173.525671,62.5787621 172.720694,62.5787621 C172.340117,62.5787621 170.358811,62.7079275 168.160693,62.7079275 C167.614046,62.7079275 167.231163,62.66641 167.231163,62.2858333 C167.231163,62.0321155 167.484881,61.9490806 167.909281,61.9490806 C168.455928,61.9490806 169.217081,61.9029501 169.807552,61.7368803 C170.905458,61.397821 171.076141,60.173056 171.117658,56.5010675 L171.498235,31.5029445 C171.498235,30.6564496 171.622787,30.0636726 172.047188,30.0636726 C172.5108,30.0636726 172.891376,30.6149322 173.608706,31.3737791 C174.113835,31.9250387 180.532895,38.8077106 186.700544,44.9292292 C189.572169,47.8008534 195.2739,53.8808545 195.991229,54.5566665 L196.201123,54.5566665 L195.779029,35.5993337 C195.737511,33.0206382 195.356934,32.2202739 194.34437,31.7958732 C193.710075,31.544462 192.695204,31.544462 192.10704,31.544462 C191.599604,31.544462 191.428922,31.4152965 191.428922,31.1615787 C191.428922,30.8271325 191.89484,30.781002 192.526828,30.781002 C194.72264,30.781002 196.750076,30.9101674 197.638088,30.9101674 C198.1017,30.9101674 199.707041,30.781002 201.775995,30.781002 Z M222.726627,46.8291142 C223.992909,45.8995845 225.219981,43.95749 225.219981,40.4953953 C225.219981,34.4984291 221.248144,32.7662285 218.759403,32.7662285 C217.700708,32.7662285 216.941861,32.8100525 216.519767,32.9346048 C216.224532,33.0222528 216.13919,33.1883226 216.13919,33.5273819 L216.13919,46.3655026 C216.13919,46.8291142 216.224532,46.9997971 216.519767,47.1243495 C217.407779,47.4218913 218.671755,47.5464437 219.728144,47.5464437 C221.41652,47.5464437 221.96778,47.3780673 222.726627,46.8291142 Z M239.702654,61.9483886 C240.039407,61.9483886 240.207783,62.0752475 240.207783,62.2874479 C240.207783,62.6242006 239.914855,62.7072355 239.407419,62.7072355 L235.394065,62.7072355 C233.029876,62.7072355 231.973487,62.4950352 230.877888,61.9068712 C229.062652,60.935824 227.457311,58.9499055 225.090816,55.6977046 C223.402439,53.37734 221.458038,50.5034093 220.911391,49.8691148 C220.699191,49.615397 220.44778,49.5738795 220.152544,49.5738795 L216.473636,49.4908446 C216.266049,49.4908446 216.13919,49.5738795 216.13919,49.8275973 L216.13919,50.4203744 C216.13919,54.3460807 216.13919,57.6836231 216.351391,59.4550346 C216.473636,60.6821062 216.731967,61.6116359 217.995943,61.7777058 C218.630238,61.8630472 219.559767,61.9483886 220.064897,61.9483886 C220.403956,61.9483886 220.574639,62.0752475 220.574639,62.2874479 C220.574639,62.5803766 220.277097,62.7072355 219.728144,62.7072355 C217.278614,62.7072355 214.153272,62.5803766 213.521284,62.5803766 C212.718613,62.5803766 210.059189,62.7072355 208.368506,62.7072355 C207.821859,62.7072355 207.522011,62.5803766 207.522011,62.2874479 C207.522011,62.0752475 207.692694,61.9483886 208.20013,61.9483886 C208.832118,61.9483886 209.339553,61.8630472 209.72013,61.7777058 C210.564318,61.6116359 210.776518,60.6821062 210.942588,59.4550346 C211.154789,57.6836231 211.154789,54.3460807 211.154789,50.4618918 L211.154789,43.0279603 C211.154789,36.6088999 211.154789,35.4279589 211.071754,34.076335 C210.986412,32.6416761 210.64966,31.9658642 209.256518,31.6706289 C208.915152,31.5829809 208.20013,31.5414635 207.609659,31.5414635 C207.146047,31.5414635 206.89233,31.4584286 206.89233,31.1654998 C206.89233,30.8656515 207.185258,30.7826166 207.821859,30.7826166 C210.059189,30.7826166 212.718613,30.907169 213.606625,30.907169 C215.041284,30.907169 218.249661,30.7826166 219.559767,30.7826166 C222.221498,30.7826166 225.049298,31.0363344 227.330452,32.6001587 C228.511393,33.400523 230.204382,35.5548178 230.204382,38.382618 C230.204382,41.5102665 228.894276,44.3795842 224.627204,47.8439854 C228.38684,52.5723626 231.297676,56.3319991 233.79103,58.9499055 C236.157525,61.3994356 237.885112,61.6946708 238.519407,61.8238363 C238.985325,61.9068712 239.365902,61.9483886 239.702654,61.9483886 Z M300.975734,30.7835392 C301.52238,30.7835392 301.863746,30.8665741 301.863746,31.1641159 C301.863746,31.4593512 301.610028,31.5423861 301.187934,31.5423861 C300.76584,31.5423861 299.877828,31.5423861 299.118981,32.0521282 C298.567721,32.4303984 297.935733,33.1477278 296.79631,35.8509756 C295.147144,39.8181994 294.00772,42.0993531 291.726567,47.2936485 C289.025625,53.458991 287.042014,58.0628158 286.110177,60.1732866 C285.012271,62.6228167 284.76086,63.2986286 284.168083,63.2986286 C283.61913,63.2986286 283.367718,62.7058516 282.562741,60.7245462 L271.922739,34.9214459 C270.951692,32.5987747 270.232056,32.1351631 268.714362,31.713069 C268.080068,31.5423861 267.404256,31.5423861 267.067503,31.5423861 C266.686926,31.5423861 266.560067,31.4178337 266.560067,31.1641159 C266.560067,30.8250567 267.025986,30.7835392 267.655667,30.7835392 C269.895303,30.7835392 272.303316,30.9127046 273.779492,30.9127046 C274.838187,30.9127046 276.86101,30.7835392 278.976094,30.7835392 C279.481223,30.7835392 279.944835,30.8665741 279.944835,31.1641159 C279.944835,31.4593512 279.693423,31.5423861 279.312847,31.5423861 C278.634728,31.5423861 278.00274,31.5839035 277.665988,31.8376213 C277.370752,32.0521282 277.241587,32.3473635 277.241587,32.7233271 C277.241587,33.2745867 277.62447,34.4578343 278.212634,35.9778345 L285.478189,55.1473677 L285.648872,55.1473677 C287.464108,50.5043319 292.953638,36.9073643 293.963896,34.1164685 C294.176097,33.569822 294.34678,32.9355275 294.34678,32.5572573 C294.34678,32.218198 294.176097,31.8814453 293.797827,31.7545864 C293.290391,31.5839035 292.65379,31.5423861 292.107143,31.5423861 C291.726567,31.5423861 291.389814,31.5008686 291.389814,31.2056334 C291.389814,30.8665741 291.770391,30.7835392 292.570755,30.7835392 C294.683532,30.7835392 296.457251,30.9127046 297.003897,30.9127046 C297.72584,30.9127046 299.707145,30.7835392 300.975734,30.7835392 Z M318.889133,61.9495419 C319.352745,61.9495419 319.564945,62.0740943 319.564945,62.2839881 C319.564945,62.5815299 319.228192,62.7083888 318.764581,62.7083888 C315.978298,62.7083888 313.316568,62.5815299 312.174838,62.5815299 C311.206097,62.5815299 308.544367,62.7083888 306.85599,62.7083888 C306.30473,62.7083888 306.009495,62.5815299 306.009495,62.2839881 C306.009495,62.0740943 306.180178,61.9495419 306.685307,61.9495419 C307.319602,61.9495419 307.827037,61.8618939 308.207614,61.778859 C309.051802,61.6081761 309.30552,60.8908467 309.430072,59.6683882 C309.642273,57.8923636 309.642273,54.5571278 309.642273,50.4630451 L309.642273,43.0291135 C309.642273,36.6100532 309.642273,35.4291121 309.559238,34.0774882 C309.47159,32.6428294 309.051802,31.9255 308.119966,31.7132996 C307.656354,31.5841342 307.109708,31.5426167 306.602272,31.5426167 C306.180178,31.5426167 305.92646,31.4572753 305.92646,31.1205226 C305.92646,30.8668048 306.263213,30.7814633 306.939025,30.7814633 C308.544367,30.7814633 311.206097,30.9083222 312.428555,30.9083222 C313.484944,30.9083222 315.978298,30.7814633 317.581333,30.7814633 C318.130286,30.7814633 318.469346,30.8668048 318.469346,31.1205226 C318.469346,31.4572753 318.215628,31.5426167 317.793534,31.5426167 C317.371439,31.5426167 317.030074,31.5841342 316.524945,31.6717822 C315.385521,31.8793694 315.048768,32.6013119 314.96112,34.0774882 C314.878085,35.4291121 314.878085,36.6100532 314.878085,43.0291135 L314.878085,50.4630451 C314.878085,54.5571278 314.878085,57.8923636 315.048768,59.7099057 C315.173321,60.8493293 315.468556,61.6081761 316.737145,61.778859 C317.329922,61.8618939 318.257145,61.9495419 318.889133,61.9495419 Z M343.642534,49.5748021 C343.854734,49.5748021 343.896252,49.4479432 343.854734,49.3210843 L340.051274,38.8909762 C340.009756,38.7225998 339.968239,38.512706 339.84138,38.512706 C339.716828,38.512706 339.633793,38.7225998 339.587662,38.8909762 L335.703473,49.2795669 C335.661956,49.4479432 335.703473,49.5748021 335.87185,49.5748021 L343.642534,49.5748021 Z M357.915313,61.9470047 C358.254373,61.9470047 358.466573,61.9885222 358.466573,62.2883705 C358.466573,62.6228167 358.08369,62.7058516 356.522172,62.7058516 C355.004478,62.7058516 351.918347,62.7058516 348.539287,62.6228167 C347.780441,62.5812992 347.275311,62.5812992 347.275311,62.286064 C347.275311,62.0300396 347.443688,61.9470047 347.868088,61.9054873 C348.163324,61.8201458 348.456252,61.4418757 348.244052,60.9344401 L344.869605,51.9828147 C344.781957,51.7683079 344.655099,51.6852729 344.447511,51.6852729 L335.025355,51.6852729 C334.815461,51.6852729 334.732426,51.7683079 334.649391,52.0243322 L332.368237,58.0628158 C331.946143,59.1192045 331.733943,60.1317692 331.733943,60.6368983 C331.733943,61.4003582 332.11452,61.9470047 333.42232,61.9470047 L334.056614,61.9470047 C334.561743,61.9470047 334.690909,62.0300396 334.690909,62.286064 C334.690909,62.6228167 334.437191,62.7058516 333.973579,62.7058516 C332.621955,62.7058516 330.804413,62.5812992 329.494307,62.5812992 C329.030695,62.5812992 326.708024,62.7058516 324.512212,62.7058516 C323.963259,62.7058516 323.711847,62.6228167 323.711847,62.286064 C323.711847,62.0300396 323.880224,61.9470047 324.216976,61.9470047 C324.597553,61.9470047 325.188024,61.9054873 325.527083,61.8639698 C327.466871,61.610252 328.271848,60.1732866 329.118343,58.0628158 L339.716828,31.5423861 C340.221957,30.3199276 340.475674,29.8540094 340.897769,29.8540094 C341.278345,29.8540094 341.532063,30.2322796 341.954157,31.2056334 C342.966722,33.5283045 349.724841,50.7557432 352.423476,57.1748035 C354.028818,60.978264 355.25589,61.566428 356.143902,61.7786284 C356.773583,61.9054873 357.407878,61.9470047 357.915313,61.9470047 Z M353.603725,31.8602253 L353.603725,33.0019554 L354.60937,33.0019554 C354.807732,33.0019554 354.957656,32.9742771 355.056836,32.9304531 C355.232132,32.8497247 355.322087,32.6905745 355.322087,32.4530023 C355.322087,32.196978 355.236745,32.0239886 355.066063,31.9340341 C354.971495,31.8879036 354.826184,31.8602253 354.634742,31.8602253 L353.603725,31.8602253 Z M353.603725,33.7031391 L353.603725,35.3638375 L352.738778,35.3638375 L352.738778,31.1244437 L354.819264,31.1244437 C355.1145,31.1313632 355.345152,31.1659611 355.504302,31.2328504 C355.665759,31.2997396 355.799538,31.3989202 355.912557,31.5303921 C356.007125,31.6364923 356.076321,31.7541251 356.129371,31.8879036 C356.184727,32.017069 356.210099,32.1646866 356.210099,32.333063 C356.210099,32.5337307 356.159356,32.7320919 356.055562,32.9281466 C355.956381,33.1195882 355.788005,33.2602862 355.555046,33.3410146 C355.748794,33.41713 355.889492,33.5301497 355.97022,33.6731543 C356.050949,33.8184654 356.09016,34.0398918 356.09016,34.3374336 L356.09016,34.6211363 C356.09016,34.8171909 356.101692,34.9486629 356.113225,35.0155521 C356.138597,35.1239588 356.191647,35.2046872 356.276988,35.2600438 L356.276988,35.3638375 L355.301328,35.3638375 C355.275956,35.2692699 355.255198,35.1954611 355.243665,35.137798 C355.2206,35.0201652 355.209067,34.8979193 355.209067,34.7733669 L355.202148,34.3789511 C355.197534,34.1090876 355.146791,33.9268721 355.052223,33.8369176 C354.957656,33.7469631 354.777747,33.7031391 354.519416,33.7031391 L353.603725,33.7031391 Z M354.429461,29.8431688 C352.521965,29.8431688 350.97198,31.3954604 350.97198,33.3052635 C350.97198,35.2104535 352.521965,36.7627452 354.429461,36.7627452 C356.336958,36.7627452 357.886943,35.2104535 357.886943,33.3052635 C357.886943,31.3954604 356.336958,29.8431688 354.429461,29.8431688 Z M354.429461,37.341683 C352.205971,37.341683 350.393042,35.528754 350.393042,33.3052635 C350.393042,31.0771599 352.205971,29.2642309 354.429461,29.2642309 C356.655259,29.2642309 358.465881,31.0771599 358.465881,33.3052635 C358.465881,35.528754 356.655259,37.341683 354.429461,37.341683 Z M135.281634,61.9483886 C135.66221,61.9483886 135.957446,61.9899061 135.957446,62.2413174 C135.957446,62.5826831 135.45001,62.7072355 134.857233,62.7072355 C133.805457,62.7072355 127.974561,62.5826831 126.288491,62.4535177 C125.312831,62.3704828 125.061419,62.2413174 125.061419,61.9899061 C125.061419,61.7777058 125.229796,61.6531534 125.525031,61.5262945 C125.781055,61.440953 125.905608,60.8896935 125.737231,59.7087524 L123.20236,41.1296898 L123.03629,41.1296898 L113.82864,60.3015295 C112.857593,62.2828348 112.645393,62.6657181 112.264816,62.6657181 C111.886546,62.6657181 111.464452,61.8192232 110.78864,60.5552473 C109.776075,58.6108463 106.438533,52.1502685 105.933404,50.9670209 C105.552827,50.0813151 103.017955,44.7601609 101.539473,41.5933014 L101.371096,41.5933014 L99.175284,58.4009525 C99.092249,59.1621059 99.0507316,59.7087524 99.0507316,60.3845644 C99.0507316,61.1872352 99.5973781,61.5655054 100.314708,61.7361883 C101.073554,61.9068712 101.666331,61.9483886 102.090732,61.9483886 C102.425178,61.9483886 102.72272,62.0314236 102.72272,62.2413174 C102.72272,62.6242006 102.342143,62.7072355 101.707849,62.7072355 C99.9364374,62.7072355 98.0335539,62.5826831 97.2770135,62.5826831 C96.4720361,62.5826831 94.4469068,62.7072355 93.0952828,62.7072355 C92.6731887,62.7072355 92.3341294,62.6242006 92.3341294,62.2413174 C92.3341294,62.0314236 92.5855407,61.9483886 93.0099414,61.9483886 C93.3490006,61.9483886 93.6442359,61.9483886 94.2785304,61.8192232 C95.4594714,61.5655054 95.7962242,59.9209528 96.006118,58.4862939 L100.190155,30.9532995 C100.314708,30.2336635 100.568425,29.8553934 100.907485,29.8553934 C101.244237,29.8553934 101.497955,30.0652872 102.046908,31.1608868 L113.574922,54.9826817 L125.061419,30.867958 C125.358961,30.1921461 125.610372,29.8553934 125.988642,29.8553934 C126.371526,29.8553934 126.622937,30.2774875 126.752102,31.1608868 L130.592467,57.2615289 C130.973044,59.9209528 131.395138,61.1434113 132.661421,61.5262945 C133.888492,61.9068712 134.730374,61.9483886 135.281634,61.9483886 Z M151.255476,55.7007031 C153.617358,55.7007031 159.088436,54.5497469 159.088436,44.7908377 C159.088436,37.2254342 154.733716,32.5293483 149.193442,32.5293483 C145.309253,32.5293483 140.885337,34.6928692 140.885337,43.102461 C140.885337,50.1281376 144.76722,55.7007031 151.255476,55.7007031 Z M150.171409,30.9101674 C158.581001,30.9101674 163.814507,35.806921 163.814507,43.5407009 C163.814507,51.2767873 158.412624,57.3890798 149.834656,57.3890798 C140.142636,57.3890798 136.223849,50.1281376 136.223849,44.1496236 C136.223849,38.3763904 140.041149,30.9101674 150.171409,30.9101674 Z M253.058821,55.7007031 C255.423009,55.7007031 260.891781,54.5497469 260.891781,44.7908377 C260.891781,37.2254342 256.537061,32.5293483 250.996787,32.5293483 C247.112598,32.5293483 242.690989,34.6928692 242.690989,43.102461 C242.690989,50.1281376 246.572871,55.7007031 253.058821,55.7007031 Z M251.974754,30.9101674 C260.386652,30.9101674 265.620158,35.806921 265.620158,43.5407009 C265.620158,51.2767873 260.215969,57.3890798 251.638001,57.3890798 C241.948288,57.3890798 238.027194,50.1281376 238.027194,44.1496236 C238.027194,38.3763904 241.844494,30.9101674 251.974754,30.9101674 Z M71.127473,43.5725309 C70.9360314,32.9694334 83.8295088,33.0224835 85.2803133,30.7966864 C85.4902071,33.3753819 84.6621644,38.8695255 82.1526647,41.6442756 C78.5683242,45.6045799 72.4514186,46.0958698 71.8794003,45.6991474 C73.800736,41.8218781 78.1762148,39.6214528 79.7008282,38.4497379 C83.4696908,35.5504354 83.4696908,34.1988115 83.4696908,34.1988115 C78.3307521,38.2375375 75.2123296,38.1106786 71.3350603,43.6371136 C71.2704776,43.7270681 71.1297796,43.6832442 71.127473,43.5725309 Z M63.319423,53.9569699 C61.5641572,55.7814315 61.2712284,56.1112647 60.1248853,57.2091708 C71.7982106,54.3767575 74.547589,62.0205829 83.4692295,61.8406739 C78.3579691,63.526744 73.8325661,62.5095663 70.0037338,60.8396419 C66.260243,59.2043153 61.0567216,59.3957569 51.8998155,61.7899303 C51.2862797,61.8475935 50.4374783,59.8501424 51.5192388,59.132813 C52.4233967,58.7107189 55.7724717,57.9933894 56.3721683,56.279641 C57.2301958,53.830111 53.9203318,51.5074398 52.942365,47.759336 C52.0981767,44.5163612 52.5294969,40.7221268 55.7863109,38.9437956 C55.7886174,43.3561788 61.0290432,44.818516 61.0290432,48.5850721 C61.0290432,51.4128723 58.9093463,52.6999135 58.4088303,52.9628574 C58.3673129,52.9836161 58.3211824,52.9467117 58.3304085,52.9005812 C59.3683449,47.6739945 55.1843077,46.8136605 54.9259769,42.7634018 C52.7739886,47.0166348 56.4898011,47.9346319 56.9557193,51.4359375 C57.2809394,53.878548 57.3016981,55.3155134 58.9370247,55.4931158 C58.9393312,55.4931158 58.9393312,55.4931158 58.9393312,55.4908093 C63.4970255,51.5812486 68.1677396,46.0755724 67.8863435,38.8676803 C67.8563586,38.1065269 68.9957822,37.9104722 69.0972693,38.6185755 C69.5285896,41.6285913 68.8573907,45.6996087 66.0941732,50.3080466 C65.9857665,50.4902621 65.8750532,50.6632515 65.7666466,50.8362409 C66.7492264,51.7127206 68.3315029,50.2457704 71.466071,50.2457704 C75.4194556,50.2457704 80.0486522,53.062038 81.7739333,54.8565148 C79.621945,50.2503835 75.8277106,48.1629779 69.2241282,48.8318703 C69.0349931,48.8549355 69.0488323,48.7073179 69.157239,48.61967 C71.6113821,46.6360581 78.8285002,46.6060732 81.6401548,49.124799 C85.459761,52.5499893 83.2062856,55.2001871 84.2073176,58.2471072 C81.1557844,56.3188519 78.7247066,57.4951799 75.7746605,56.6486851 C72.8246145,55.8021902 71.7474671,52.2040105 69.7984531,51.9618253 C67.7710172,51.7104141 64.5995447,52.7114461 63.319423,53.9569699 Z M63.8494626,32.6903438 C62.3202362,33.8528326 62.7561695,35.9010272 64.027065,36.4453673 C65.0880668,36.8997528 67.5468229,35.785701 67.3738335,33.8574457 C67.235442,32.3189932 65.1226646,31.7216031 63.8494626,32.6903438 Z M58.3945299,34.8077342 C57.0821169,34.2864594 56.0095825,32.0560493 57.723331,30.6951993 C59.7184755,29.1060032 60.5419051,31.6431812 62.8761088,30.7966864 C64.5298876,30.1969898 65.3279454,25.3117688 69.2190539,27.6113747 C71.1265504,28.7369592 69.1152602,30.9281583 70.1070662,32.4781435 C71.001998,33.8758979 72.6857616,31.8161707 73.6683415,33.617567 C74.9761414,36.0117405 71.5763229,37.1188727 68.776201,36.5445478 C66.6311323,36.106308 66.2159577,37.8016042 65.8953507,39.4922874 C65.5493719,41.3282817 63.3558661,42.4630922 61.9119812,41.7826672 C60.5926486,41.1599053 60.4727093,39.5868549 60.9870645,37.6309213 C61.5406306,35.5158375 59.7069429,35.3290089 58.3945299,34.8077342 Z"></path>
            </g>
        </g>
    </g>
</svg>